<?xml version="1.0" encoding="utf-8"?>
<svg viewBox="186.691 198.4227 102.0983 46.1878" xmlns="http://www.w3.org/2000/svg" xmlns:bx="https://boxy-svg.com">
  <defs>
    <style bx:fonts="Cabin">@import url(https://fonts.googleapis.com/css2?family=Cabin%3Aital%2Cwght%400%2C400%3B0%2C500%3B0%2C600%3B0%2C700%3B1%2C400%3B1%2C500%3B1%2C600%3B1%2C700&amp;display=swap);</style>
  </defs>
  <path d="M 190.354 198.515 C 188.728 198.868 187.176 200.32 186.797 201.842 C 186.733 202.097 186.695 204.221 186.693 207.549 L 186.691 212.85 L 191.37 212.85 L 196.048 212.85 L 196.048 208.52 L 196.048 204.188 L 211.642 204.188 L 227.237 204.188 L 227.237 208.52 L 227.237 212.852 L 231.94 212.829 L 236.643 212.805 L 236.668 207.408 C 236.682 204.316 236.656 202.032 236.607 202.06 C 236.559 202.087 236.496 201.968 236.466 201.796 C 236.364 201.212 235.789 200.285 235.181 199.722 C 234.565 199.152 233.666 198.677 232.89 198.512 C 232.325 198.391 190.909 198.394 190.354 198.515 M 186.737 207.482 C 186.737 210.459 186.749 211.664 186.764 210.16 C 186.779 208.655 186.779 206.219 186.764 204.745 C 186.749 203.273 186.737 204.504 186.737 207.482" stroke="none" fill="#ff6600" fill-rule="evenodd" style="" transform="matrix(1, 0, 0, 1, 0, -2.842170943040401e-14)"/>
  <path d="M 196.048 221.512 L 196.048 238.836 L 200.726 238.836 L 205.405 238.836 L 205.405 233.062 L 205.405 227.287 L 211.642 227.287 L 217.88 227.287 L 217.88 222.956 L 217.88 218.625 L 211.642 218.625 L 205.405 218.625 L 205.405 215.737 L 205.405 212.85 L 216.321 212.85 L 227.237 212.85 L 227.237 208.52 L 227.237 204.188 L 211.642 204.188 L 196.048 204.188 L 196.048 221.512" stroke="none" fill="#fcfbfb" fill-rule="evenodd" style="" transform="matrix(1, 0, 0, 1, 0, -2.842170943040401e-14)"/>
  <path d="M 186.693 226.814 C 186.695 236.12 186.729 240.912 186.797 241.183 C 187.183 242.733 188.72 244.156 190.395 244.513 C 191.005 244.643 232.279 244.643 232.89 244.513 C 233.666 244.347 234.565 243.873 235.181 243.303 C 235.79 242.739 236.364 241.812 236.467 241.226 C 236.498 241.051 236.56 240.885 236.607 240.859 C 236.654 240.833 236.691 234.592 236.691 226.808 L 236.691 212.805 L 221.048 212.828 L 205.405 212.852 L 205.405 215.738 L 205.405 218.625 L 211.642 218.625 L 217.88 218.625 L 217.88 222.956 L 217.88 227.287 L 211.642 227.287 L 205.405 227.287 L 205.405 233.062 L 205.405 238.836 L 200.726 238.836 L 196.048 238.836 L 196.048 225.843 L 196.048 212.85 L 191.37 212.85 L 186.691 212.85 L 186.693 226.814 M 186.738 226.881 C 186.738 234.623 186.75 237.776 186.764 233.889 C 186.778 230.002 186.778 223.668 186.764 219.814 C 186.75 215.959 186.738 219.139 186.738 226.881" stroke="none" fill="#5c5c6b" fill-rule="evenodd" style="" transform="matrix(1, 0, 0, 1, 0, -2.842170943040401e-14)"/>
  <text style="fill: rgb(95, 99, 104); font-family: Cabin; font-size: 31px; font-weight: 500; white-space: pre;" x="239.895" y="232.61" transform="matrix(1, 0, 0, 1, 0, -2.842170943040401e-14)">Pay</text>
</svg>