<?xml version="1.0" encoding="utf-8"?>
<svg viewBox="165.719 219.8677 101.654 46.1878" xmlns="http://www.w3.org/2000/svg">
  <path class="st0" d="M 225.173 245.883 L 225.173 255.183 L 222.173 255.183 L 222.173 232.183 L 229.973 232.183 C 231.873 232.183 233.673 232.883 235.073 234.183 C 236.473 235.383 237.173 237.183 237.173 239.083 C 237.173 240.983 236.473 242.683 235.073 243.983 C 233.673 245.283 231.973 245.983 229.973 245.983 L 225.173 245.883 Z M 225.173 234.983 L 225.173 242.983 L 230.173 242.983 C 231.273 242.983 232.373 242.583 233.073 241.783 C 234.673 240.283 234.673 237.783 233.173 236.283 C 233.173 236.283 233.073 236.183 233.073 236.183 C 232.273 235.383 231.273 234.883 230.173 234.983 L 225.173 234.983 Z" style="fill: rgb(95, 99, 104);" transform="matrix(0.9999999999999999, 0, 0, 0.9999999999999999, 2.842170943040401e-14, 2.842170943040401e-14)"/>
  <path class="st0" d="M 244.073 238.983 C 246.273 238.983 247.973 239.583 249.273 240.783 C 250.573 241.983 251.173 243.583 251.173 245.583 L 251.173 255.183 L 248.373 255.183 L 248.373 252.983 L 248.273 252.983 C 247.073 254.783 245.373 255.683 243.373 255.683 C 241.673 255.683 240.173 255.183 238.973 254.183 C 237.873 253.183 237.173 251.783 237.173 250.283 C 237.173 248.683 237.773 247.383 238.973 246.383 C 240.173 245.383 241.873 244.983 243.873 244.983 C 245.673 244.983 247.073 245.283 248.173 245.983 L 248.173 245.283 C 248.173 244.283 247.773 243.283 246.973 242.683 C 246.173 241.983 245.173 241.583 244.073 241.583 C 242.373 241.583 241.073 242.283 240.173 243.683 L 237.573 242.083 C 239.173 239.983 241.273 238.983 244.073 238.983 Z M 240.273 250.383 C 240.273 251.183 240.673 251.883 241.273 252.283 C 241.973 252.783 242.773 253.083 243.573 253.083 C 244.773 253.083 245.973 252.583 246.873 251.683 C 247.873 250.783 248.373 249.683 248.373 248.483 C 247.473 247.783 246.173 247.383 244.473 247.383 C 243.273 247.383 242.273 247.683 241.473 248.283 C 240.673 248.783 240.273 249.483 240.273 250.383 Z" style="fill: rgb(95, 99, 104);" transform="matrix(0.9999999999999999, 0, 0, 0.9999999999999999, 2.842170943040401e-14, 2.842170943040401e-14)"/>
  <path class="st0" d="M 267.373 239.483 L 257.473 262.183 L 254.473 262.183 L 258.173 254.283 L 251.673 239.583 L 254.873 239.583 L 259.573 250.883 L 259.673 250.883 L 264.273 239.583 L 267.373 239.583 L 267.373 239.483 Z" style="fill: rgb(95, 99, 104);" transform="matrix(0.9999999999999999, 0, 0, 0.9999999999999999, 2.842170943040401e-14, 2.842170943040401e-14)"/>
  <path d="M 169.382 219.96 C 167.756 220.313 166.204 221.765 165.825 223.287 C 165.761 223.542 165.723 225.666 165.721 228.994 L 165.719 234.295 L 170.398 234.295 L 175.076 234.295 L 175.076 229.965 L 175.076 225.633 L 190.67 225.633 L 206.265 225.633 L 206.265 229.965 L 206.265 234.297 L 210.968 234.274 L 215.671 234.25 L 215.696 228.853 C 215.71 225.761 215.684 223.477 215.635 223.505 C 215.587 223.532 215.524 223.413 215.494 223.241 C 215.392 222.657 214.817 221.73 214.209 221.167 C 213.593 220.597 212.694 220.122 211.918 219.957 C 211.353 219.836 169.937 219.839 169.382 219.96 M 165.765 228.927 C 165.765 231.904 165.777 233.109 165.792 231.605 C 165.807 230.1 165.807 227.664 165.792 226.19 C 165.777 224.718 165.765 225.949 165.765 228.927" stroke="none" fill="#ff6600" fill-rule="evenodd" style="" transform="matrix(0.9999999999999999, 0, 0, 0.9999999999999999, 2.842170943040401e-14, 2.842170943040401e-14)"/>
  <path d="M 175.076 242.957 L 175.076 260.281 L 179.754 260.281 L 184.433 260.281 L 184.433 254.507 L 184.433 248.732 L 190.67 248.732 L 196.908 248.732 L 196.908 244.401 L 196.908 240.07 L 190.67 240.07 L 184.433 240.07 L 184.433 237.182 L 184.433 234.295 L 195.349 234.295 L 206.265 234.295 L 206.265 229.965 L 206.265 225.633 L 190.67 225.633 L 175.076 225.633 L 175.076 242.957" stroke="none" fill="#fcfbfb" fill-rule="evenodd" style="" transform="matrix(0.9999999999999999, 0, 0, 0.9999999999999999, 2.842170943040401e-14, 2.842170943040401e-14)"/>
  <path d="M 165.721 248.259 C 165.723 257.565 165.757 262.357 165.825 262.628 C 166.211 264.178 167.748 265.601 169.423 265.958 C 170.033 266.088 211.307 266.088 211.918 265.958 C 212.694 265.792 213.593 265.318 214.209 264.748 C 214.818 264.184 215.392 263.257 215.495 262.671 C 215.526 262.496 215.588 262.33 215.635 262.304 C 215.682 262.278 215.719 256.037 215.719 248.253 L 215.719 234.25 L 200.076 234.273 L 184.433 234.297 L 184.433 237.183 L 184.433 240.07 L 190.67 240.07 L 196.908 240.07 L 196.908 244.401 L 196.908 248.732 L 190.67 248.732 L 184.433 248.732 L 184.433 254.507 L 184.433 260.281 L 179.754 260.281 L 175.076 260.281 L 175.076 247.288 L 175.076 234.295 L 170.398 234.295 L 165.719 234.295 L 165.721 248.259 M 165.766 248.326 C 165.766 256.068 165.778 259.221 165.792 255.334 C 165.806 251.447 165.806 245.113 165.792 241.259 C 165.778 237.404 165.766 240.584 165.766 248.326" stroke="none" fill="#5c5c6b" fill-rule="evenodd" style="" transform="matrix(0.9999999999999999, 0, 0, 0.9999999999999999, 2.842170943040401e-14, 2.842170943040401e-14)"/>
</svg>