<?xml version="1.0" encoding="utf-8"?>
<svg viewBox="148.073 298.0757 159.6714 46.1877" xmlns="http://www.w3.org/2000/svg" xmlns:bx="https://boxy-svg.com">
  <defs>
    <style bx:fonts="Cabin">@import url(https://fonts.googleapis.com/css2?family=Cabin%3Aital%2Cwght%400%2C400%3B0%2C500%3B0%2C600%3B0%2C700%3B1%2C400%3B1%2C500%3B1%2C600%3B1%2C700&amp;display=swap);</style>
  </defs>
  <text style="fill: rgb(95, 99, 104); font-family: Cabin; font-size: 31px; font-weight: 540; letter-spacing: -0.3px; white-space: pre;" transform="matrix(1, 0, 0, 1, 0, -2.842170943040401e-14)"><tspan x="201.134" y="332.956">Redirect</tspan><tspan x="201.134" dy="1em">​</tspan><tspan x="201.134" dy="1em">​</tspan></text>
  <path d="M 151.736 298.168 C 150.11 298.521 148.558 299.973 148.179 301.495 C 148.115 301.75 148.077 303.874 148.075 307.202 L 148.073 312.503 L 152.752 312.503 L 157.43 312.503 L 157.43 308.173 L 157.43 303.841 L 173.024 303.841 L 188.619 303.841 L 188.619 308.173 L 188.619 312.505 L 193.322 312.482 L 198.025 312.458 L 198.05 307.061 C 198.064 303.969 198.038 301.685 197.989 301.713 C 197.941 301.74 197.878 301.621 197.848 301.449 C 197.746 300.865 197.171 299.938 196.563 299.375 C 195.947 298.805 195.048 298.33 194.272 298.165 C 193.707 298.044 152.291 298.047 151.736 298.168 M 148.119 307.135 C 148.119 310.112 148.131 311.317 148.146 309.813 C 148.161 308.308 148.161 305.872 148.146 304.398 C 148.131 302.926 148.119 304.157 148.119 307.135" stroke="none" fill="#ff6600" fill-rule="evenodd" style="" transform="matrix(1, 0, 0, 1, 0, -2.842170943040401e-14)"/>
  <path d="M 157.43 321.165 L 157.43 338.489 L 162.108 338.489 L 166.787 338.489 L 166.787 332.715 L 166.787 326.94 L 173.024 326.94 L 179.262 326.94 L 179.262 322.609 L 179.262 318.278 L 173.024 318.278 L 166.787 318.278 L 166.787 315.39 L 166.787 312.503 L 177.703 312.503 L 188.619 312.503 L 188.619 308.173 L 188.619 303.841 L 173.024 303.841 L 157.43 303.841 L 157.43 321.165" stroke="none" fill="#fcfbfb" fill-rule="evenodd" style="" transform="matrix(1, 0, 0, 1, 0, -2.842170943040401e-14)"/>
  <path d="M 148.075 326.467 C 148.077 335.773 148.111 340.565 148.179 340.836 C 148.565 342.386 150.102 343.809 151.777 344.166 C 152.387 344.296 193.661 344.296 194.272 344.166 C 195.048 344 195.947 343.526 196.563 342.956 C 197.172 342.392 197.746 341.465 197.849 340.879 C 197.88 340.704 197.942 340.538 197.989 340.512 C 198.036 340.486 198.073 334.245 198.073 326.461 L 198.073 312.458 L 182.43 312.481 L 166.787 312.505 L 166.787 315.391 L 166.787 318.278 L 173.024 318.278 L 179.262 318.278 L 179.262 322.609 L 179.262 326.94 L 173.024 326.94 L 166.787 326.94 L 166.787 332.715 L 166.787 338.489 L 162.108 338.489 L 157.43 338.489 L 157.43 325.496 L 157.43 312.503 L 152.752 312.503 L 148.073 312.503 L 148.075 326.467 M 148.12 326.534 C 148.12 334.276 148.132 337.429 148.146 333.542 C 148.16 329.655 148.16 323.321 148.146 319.467 C 148.132 315.612 148.12 318.792 148.12 326.534" stroke="none" fill="#5c5c6b" fill-rule="evenodd" style="" transform="matrix(1, 0, 0, 1, 0, -2.842170943040401e-14)"/>
</svg>